<svg id="visual" viewBox="0 0 900 600" width="900" height="600" xmlns="http://www.w3.org/2000/svg" xmlns:xlink="http://www.w3.org/1999/xlink" version="1.1"><path d="M683 600L629 600L629 533L710 533L710 467L629 467L629 400L629 400L629 333L674 333L674 267L629 267L629 200L638 200L638 133L692 133L692 67L656 67L656 0L900 0L900 67L900 67L900 133L900 133L900 200L900 200L900 267L900 267L900 333L900 333L900 400L900 400L900 467L900 467L900 533L900 533L900 600L900 600Z" fill="#85bcc7"></path><path d="M431 600L413 600L413 533L413 533L413 467L395 467L395 400L377 400L377 333L359 333L359 267L368 267L368 200L386 200L386 133L395 133L395 67L377 67L377 0L657 0L657 67L693 67L693 133L639 133L639 200L630 200L630 267L675 267L675 333L630 333L630 400L630 400L630 467L711 467L711 533L630 533L630 600L684 600Z" fill="#a0c7d0"></path><path d="M287 600L269 600L269 533L305 533L305 467L287 467L287 400L251 400L251 333L251 333L251 267L251 267L251 200L287 200L287 133L287 133L287 67L251 67L251 0L378 0L378 67L396 67L396 133L387 133L387 200L369 200L369 267L360 267L360 333L378 333L378 400L396 400L396 467L414 467L414 533L414 533L414 600L432 600Z" fill="#b9d3d9"></path><path d="M107 600L89 600L89 533L116 533L116 467L125 467L125 400L98 400L98 333L107 333L107 267L116 267L116 200L107 200L107 133L125 133L125 67L89 67L89 0L252 0L252 67L288 67L288 133L288 133L288 200L252 200L252 267L252 267L252 333L252 333L252 400L288 400L288 467L306 467L306 533L270 533L270 600L288 600Z" fill="#d2dfe2"></path><path d="M0 600L0 600L0 533L0 533L0 467L0 467L0 400L0 400L0 333L0 333L0 267L0 267L0 200L0 200L0 133L0 133L0 67L0 67L0 0L90 0L90 67L126 67L126 133L108 133L108 200L117 200L117 267L108 267L108 333L99 333L99 400L126 400L126 467L117 467L117 533L90 533L90 600L108 600Z" fill="#ebebeb"></path></svg>