<svg id="visual" viewBox="0 0 900 600" width="900" height="600" xmlns="http://www.w3.org/2000/svg" xmlns:xlink="http://www.w3.org/1999/xlink" version="1.1"><rect x="0" y="0" width="900" height="600" fill="#001220"></rect><path d="M0 162L30 163.2C60 164.3 120 166.7 180 166C240 165.3 300 161.7 360 156.3C420 151 480 144 540 154C600 164 660 191 720 191.5C780 192 840 166 870 153L900 140L900 601L870 601C840 601 780 601 720 601C660 601 600 601 540 601C480 601 420 601 360 601C300 601 240 601 180 601C120 601 60 601 30 601L0 601Z" fill="#23e282"></path><path d="M0 242L30 236.2C60 230.3 120 218.7 180 225.3C240 232 300 257 360 259.3C420 261.7 480 241.3 540 240.3C600 239.3 660 257.7 720 269.7C780 281.7 840 287.3 870 290.2L900 293L900 601L870 601C840 601 780 601 720 601C660 601 600 601 540 601C480 601 420 601 360 601C300 601 240 601 180 601C120 601 60 601 30 601L0 601Z" fill="#72e69c"></path><path d="M0 377L30 369.3C60 361.7 120 346.3 180 350.8C240 355.3 300 379.7 360 378.2C420 376.7 480 349.3 540 336.2C600 323 660 324 720 325.2C780 326.3 840 327.7 870 328.3L900 329L900 601L870 601C840 601 780 601 720 601C660 601 600 601 540 601C480 601 420 601 360 601C300 601 240 601 180 601C120 601 60 601 30 601L0 601Z" fill="#a0e9b6"></path><path d="M0 473L30 466.2C60 459.3 120 445.7 180 442.7C240 439.7 300 447.3 360 440.7C420 434 480 413 540 406.3C600 399.7 660 407.3 720 413.2C780 419 840 423 870 425L900 427L900 601L870 601C840 601 780 601 720 601C660 601 600 601 540 601C480 601 420 601 360 601C300 601 240 601 180 601C120 601 60 601 30 601L0 601Z" fill="#c7ebd0"></path><path d="M0 499L30 503.3C60 507.7 120 516.3 180 518.7C240 521 300 517 360 514.3C420 511.7 480 510.3 540 508.7C600 507 660 505 720 500.8C780 496.7 840 490.3 870 487.2L900 484L900 601L870 601C840 601 780 601 720 601C660 601 600 601 540 601C480 601 420 601 360 601C300 601 240 601 180 601C120 601 60 601 30 601L0 601Z" fill="#ebebeb"></path></svg>