<svg id="visual" viewBox="0 0 1920 1080" width="1920" height="1080" xmlns="http://www.w3.org/2000/svg" xmlns:xlink="http://www.w3.org/1999/xlink" version="1.1"><rect x="0" y="0" width="1920" height="1080" fill="#1C1D25"></rect><path d="M0 321L40 313.8C80 306.7 160 292.3 240 294C320 295.7 400 313.3 480 337.2C560 361 640 391 720 393.5C800 396 880 371 960 356.2C1040 341.3 1120 336.7 1200 337.7C1280 338.7 1360 345.3 1440 347.8C1520 350.3 1600 348.7 1680 355.7C1760 362.7 1840 378.3 1880 386.2L1920 394L1920 1081L1880 1081C1840 1081 1760 1081 1680 1081C1600 1081 1520 1081 1440 1081C1360 1081 1280 1081 1200 1081C1120 1081 1040 1081 960 1081C880 1081 800 1081 720 1081C640 1081 560 1081 480 1081C400 1081 320 1081 240 1081C160 1081 80 1081 40 1081L0 1081Z" fill="#85bcc7"></path><path d="M0 547L40 528C80 509 160 471 240 456.8C320 442.7 400 452.3 480 457.2C560 462 640 462 720 482.3C800 502.7 880 543.3 960 551.7C1040 560 1120 536 1200 514.2C1280 492.3 1360 472.7 1440 473.5C1520 474.3 1600 495.7 1680 498.7C1760 501.7 1840 486.3 1880 478.7L1920 471L1920 1081L1880 1081C1840 1081 1760 1081 1680 1081C1600 1081 1520 1081 1440 1081C1360 1081 1280 1081 1200 1081C1120 1081 1040 1081 960 1081C880 1081 800 1081 720 1081C640 1081 560 1081 480 1081C400 1081 320 1081 240 1081C160 1081 80 1081 40 1081L0 1081Z" fill="#a8cbd3"></path><path d="M0 644L40 647.8C80 651.7 160 659.3 240 661.3C320 663.3 400 659.7 480 655C560 650.3 640 644.7 720 648.7C800 652.7 880 666.3 960 663.5C1040 660.7 1120 641.3 1200 632C1280 622.7 1360 623.3 1440 644.8C1520 666.3 1600 708.7 1680 711.3C1760 714 1840 677 1880 658.5L1920 640L1920 1081L1880 1081C1840 1081 1760 1081 1680 1081C1600 1081 1520 1081 1440 1081C1360 1081 1280 1081 1200 1081C1120 1081 1040 1081 960 1081C880 1081 800 1081 720 1081C640 1081 560 1081 480 1081C400 1081 320 1081 240 1081C160 1081 80 1081 40 1081L0 1081Z" fill="#cadbdf"></path><path d="M0 851L40 850.3C80 849.7 160 848.3 240 845C320 841.7 400 836.3 480 831.3C560 826.3 640 821.7 720 825C800 828.3 880 839.7 960 845C1040 850.3 1120 849.7 1200 848.8C1280 848 1360 847 1440 854.2C1520 861.3 1600 876.7 1680 882.3C1760 888 1840 884 1880 882L1920 880L1920 1081L1880 1081C1840 1081 1760 1081 1680 1081C1600 1081 1520 1081 1440 1081C1360 1081 1280 1081 1200 1081C1120 1081 1040 1081 960 1081C880 1081 800 1081 720 1081C640 1081 560 1081 480 1081C400 1081 320 1081 240 1081C160 1081 80 1081 40 1081L0 1081Z" fill="#ebebeb"></path></svg>