<svg id="visual" viewBox="0 0 960 540" width="960" height="540" xmlns="http://www.w3.org/2000/svg" xmlns:xlink="http://www.w3.org/1999/xlink" version="1.1"><path d="M742 0L741 0L741 77L815 77L815 154L809 154L809 231L814 231L814 309L762 309L762 386L794 386L794 463L752 463L752 540L0 540L0 463L0 463L0 386L0 386L0 309L0 309L0 231L0 231L0 154L0 154L0 77L0 77L0 0L0 0Z" fill="#ebebeb"></path><path d="M698 0L652 0L652 77L709 77L709 154L717 154L717 231L687 231L687 309L734 309L734 386L705 386L705 463L719 463L719 540L0 540L0 463L0 463L0 386L0 386L0 309L0 309L0 231L0 231L0 154L0 154L0 77L0 77L0 0L0 0Z" fill="#dfe5e6"></path><path d="M595 0L601 0L601 77L589 77L589 154L640 154L640 231L635 231L635 309L635 309L635 386L564 386L564 463L637 463L637 540L0 540L0 463L0 463L0 386L0 386L0 309L0 309L0 231L0 231L0 154L0 154L0 77L0 77L0 0L0 0Z" fill="#d2dfe2"></path><path d="M518 0L527 0L527 77L552 77L552 154L529 154L529 231L478 231L478 309L483 309L483 386L486 386L486 463L545 463L545 540L0 540L0 463L0 463L0 386L0 386L0 309L0 309L0 231L0 231L0 154L0 154L0 77L0 77L0 0L0 0Z" fill="#c6d9dd"></path><path d="M399 0L429 0L429 77L434 77L434 154L425 154L425 231L410 231L410 309L398 309L398 386L471 386L471 463L401 463L401 540L0 540L0 463L0 463L0 386L0 386L0 309L0 309L0 231L0 231L0 154L0 154L0 77L0 77L0 0L0 0Z" fill="#b9d3d9"></path><path d="M372 0L307 0L307 77L307 77L307 154L330 154L330 231L353 231L353 309L313 309L313 386L315 386L315 463L325 463L325 540L0 540L0 463L0 463L0 386L0 386L0 309L0 309L0 231L0 231L0 154L0 154L0 77L0 77L0 0L0 0Z" fill="#accdd5"></path><path d="M284 0L257 0L257 77L232 77L232 154L302 154L302 231L256 231L256 309L284 309L284 386L230 386L230 463L231 463L231 540L0 540L0 463L0 463L0 386L0 386L0 309L0 309L0 231L0 231L0 154L0 154L0 77L0 77L0 0L0 0Z" fill="#a0c7d0"></path><path d="M162 0L163 0L163 77L186 77L186 154L165 154L165 231L172 231L172 309L189 309L189 386L199 386L199 463L193 463L193 540L0 540L0 463L0 463L0 386L0 386L0 309L0 309L0 231L0 231L0 154L0 154L0 77L0 77L0 0L0 0Z" fill="#92c2cc"></path><path d="M106 0L77 0L77 77L54 77L54 154L56 154L56 231L89 231L89 309L45 309L45 386L54 386L54 463L71 463L71 540L0 540L0 463L0 463L0 386L0 386L0 309L0 309L0 231L0 231L0 154L0 154L0 77L0 77L0 0L0 0Z" fill="#85bcc7"></path></svg>