<svg id="visual" viewBox="0 0 1920 1080" width="1920" height="1080" xmlns="http://www.w3.org/2000/svg" xmlns:xlink="http://www.w3.org/1999/xlink" version="1.1"><path d="M778 0L773 0L773 83L759 83L759 166L792 166L792 249L796 249L796 332L814 332L814 415L787 415L787 498L805 498L805 582L816 582L816 665L801 665L801 748L755 748L755 831L790 831L790 914L822 914L822 997L774 997L774 1080L0 1080L0 997L0 997L0 914L0 914L0 831L0 831L0 748L0 748L0 665L0 665L0 582L0 582L0 498L0 498L0 415L0 415L0 332L0 332L0 249L0 249L0 166L0 166L0 83L0 83L0 0L0 0Z" fill="#ebebeb"></path><path d="M698 0L686 0L686 83L718 83L718 166L695 166L695 249L716 249L716 332L672 332L672 415L671 415L671 498L678 498L678 582L680 582L680 665L723 665L723 748L718 748L718 831L708 831L708 914L672 914L672 997L727 997L727 1080L0 1080L0 997L0 997L0 914L0 914L0 831L0 831L0 748L0 748L0 665L0 665L0 582L0 582L0 498L0 498L0 415L0 415L0 332L0 332L0 249L0 249L0 166L0 166L0 83L0 83L0 0L0 0Z" fill="#dfe5e6"></path><path d="M612 0L615 0L615 83L605 83L605 166L588 166L588 249L617 249L617 332L600 332L600 415L629 415L629 498L605 498L605 582L603 582L603 665L592 665L592 748L612 748L612 831L587 831L587 914L616 914L616 997L623 997L623 1080L0 1080L0 997L0 997L0 914L0 914L0 831L0 831L0 748L0 748L0 665L0 665L0 582L0 582L0 498L0 498L0 415L0 415L0 332L0 332L0 249L0 249L0 166L0 166L0 83L0 83L0 0L0 0Z" fill="#d2dfe2"></path><path d="M539 0L544 0L544 83L523 83L523 166L537 166L537 249L505 249L505 332L519 332L519 415L501 415L501 498L538 498L538 582L502 582L502 665L540 665L540 748L542 748L542 831L540 831L540 914L536 914L536 997L518 997L518 1080L0 1080L0 997L0 997L0 914L0 914L0 831L0 831L0 748L0 748L0 665L0 665L0 582L0 582L0 498L0 498L0 415L0 415L0 332L0 332L0 249L0 249L0 166L0 166L0 83L0 83L0 0L0 0Z" fill="#c6d9dd"></path><path d="M432 0L457 0L457 83L431 83L431 166L439 166L439 249L431 249L431 332L456 332L456 415L468 415L468 498L462 498L462 582L452 582L452 665L430 665L430 748L433 748L433 831L431 831L431 914L451 914L451 997L458 997L458 1080L0 1080L0 997L0 997L0 914L0 914L0 831L0 831L0 748L0 748L0 665L0 665L0 582L0 582L0 498L0 498L0 415L0 415L0 332L0 332L0 249L0 249L0 166L0 166L0 83L0 83L0 0L0 0Z" fill="#b9d3d9"></path><path d="M365 0L361 0L361 83L370 83L370 166L337 166L337 249L376 249L376 332L352 332L352 415L333 415L333 498L362 498L362 582L367 582L367 665L376 665L376 748L359 748L359 831L347 831L347 914L361 914L361 997L372 997L372 1080L0 1080L0 997L0 997L0 914L0 914L0 831L0 831L0 748L0 748L0 665L0 665L0 582L0 582L0 498L0 498L0 415L0 415L0 332L0 332L0 249L0 249L0 166L0 166L0 83L0 83L0 0L0 0Z" fill="#accdd5"></path><path d="M274 0L258 0L258 83L265 83L265 166L278 166L278 249L287 249L287 332L249 332L249 415L275 415L275 498L273 498L273 582L273 582L273 665L247 665L247 748L259 748L259 831L278 831L278 914L287 914L287 997L289 997L289 1080L0 1080L0 997L0 997L0 914L0 914L0 831L0 831L0 748L0 748L0 665L0 665L0 582L0 582L0 498L0 498L0 415L0 415L0 332L0 332L0 249L0 249L0 166L0 166L0 83L0 83L0 0L0 0Z" fill="#a0c7d0"></path><path d="M198 0L184 0L184 83L200 83L200 166L192 166L192 249L165 249L165 332L203 332L203 415L175 415L175 498L179 498L179 582L195 582L195 665L188 665L188 748L165 748L165 831L182 831L182 914L181 914L181 997L186 997L186 1080L0 1080L0 997L0 997L0 914L0 914L0 831L0 831L0 748L0 748L0 665L0 665L0 582L0 582L0 498L0 498L0 415L0 415L0 332L0 332L0 249L0 249L0 166L0 166L0 83L0 83L0 0L0 0Z" fill="#92c2cc"></path><path d="M110 0L94 0L94 83L89 83L89 166L98 166L98 249L97 249L97 332L112 332L112 415L91 415L91 498L87 498L87 582L84 582L84 665L115 665L115 748L99 748L99 831L104 831L104 914L95 914L95 997L87 997L87 1080L0 1080L0 997L0 997L0 914L0 914L0 831L0 831L0 748L0 748L0 665L0 665L0 582L0 582L0 498L0 498L0 415L0 415L0 332L0 332L0 249L0 249L0 166L0 166L0 83L0 83L0 0L0 0Z" fill="#85bcc7"></path></svg>